<?xml version="1.0" encoding="UTF-8"?>
<svg id="Layer_1" data-name="Layer 1" xmlns="http://www.w3.org/2000/svg" width="90" height="68" version="1.1" viewBox="0 0 90 68">
  <path d="M28.9775,47.08424V13.00024c-.0034-.021,8.1626,3.1816,15.8194,11.1274-4.3814,6.0323-7.7124,13.7242-8.793,22.9663,2.5249.2364,5.09811.7247,7.729,1.4961.959-6.9609,3.8257-13.3144,6.8589-17.3032,2.9907,4.4771,6.415,13.3521,7.5947,19.313,2.4067.8711,4.81351,1.6211,7.2437,2.1563-1.2276-8.8223-4.9434-21.13141-9.065-27.58741,7.61281-6.57279,15.5781-8.30769,15.5669-8.29109v36.7222c2.42091.0742,4.8794-.1367,7.398-.7246V5.55544c.0537-.13771-15.8658-.2588-28.7383,12.0146C37.7602,2.99344,21.3242.16773,21.3589.30394v48.2412c2.499-.7265,5.0346-1.2246,7.6186-1.4609Z" style="fill: #984708; stroke-width: 0px;"/>
  <path d="M81.9985,55.67794c-11.9184,4.00779-22.4106-.8086-33.4697-5.3906C30.35501,42.75614,15.0312,48.66824.0415,60.04514c13.4692-4.6719,25.1235-4.457,37.4136,2.26559,21.7021,11.17191,42.4648,4.12311,56.9277-13.28709-3.7915,2.8477-7.9209,5.0664-12.3843,6.6543" style="fill: #4c721d; stroke-width: 0px;"/>
</svg>